<?xml version="1.0" encoding="UTF-8"?>
<svg width="96px" height="96px" viewBox="0 0 96 96" version="1.1" xmlns="http://www.w3.org/2000/svg" xmlns:xlink="http://www.w3.org/1999/xlink">
    <title>Mask</title>
    <defs>
        <rect id="path-1" x="0" y="0" width="96" height="96"/>
    </defs>
    <g id="Launcher-Icons" stroke="none" stroke-width="1" fill="none" fill-rule="evenodd">
        <g id="mipmap-xhdpi/ic_launcher">
            <g id="Mask">
                <mask id="mask-2" fill="white">
                    <use xlink:href="#path-1"/>
                </mask>
                <g id="Group" mask="url(#mask-2)">
                    <g id="picko_with_logo">
                        <g id="balloon" transform="translate(2.524102, 0.000000)">
                            <polygon id="Shape" fill="#FFFFFF" fill-rule="nonzero" points="73.2494303 27.8156004 75.773532 27.8156004 78.2976337 27.8156004 80.8217353 27.8156004 83.345837 27.8156004 85.8699387 27.8156004 85.8699387 25.2914987 88.3940403 25.2914987 88.3940403 22.767397 90.918142 22.767397 90.918142 20.2432954 90.918142 17.7191937 90.918142 15.195092 90.918142 12.6709904 90.918142 10.1468887 90.918142 7.62278703 90.918142 5.09868536 88.3940403 5.09868536 88.3940403 2.5745837 85.8699387 2.5745837 85.8699387 0.0504820333 83.345837 0.0504820333 80.8217353 0.0504820333 78.2976337 0.0504820333 75.773532 0.0504820333 73.2494303 0.0504820333 70.7253287 0.0504820333 68.201227 0.0504820333 65.6771253 0.0504820333 63.1530237 0.0504820333 60.628922 0.0504820333 58.1048203 0.0504820333 55.5807187 0.0504820333 53.056617 0.0504820333 50.5325153 0.0504820333 48.0084137 0.0504820333 45.484312 0.0504820333 42.9602103 0.0504820333 40.4361087 0.0504820333 37.912007 0.0504820333 35.3879053 0.0504820333 32.8638037 0.0504820333 30.339702 0.0504820333 27.8156004 0.0504820333 25.2914987 0.0504820333 22.767397 0.0504820333 20.2432954 0.0504820333 17.7191937 0.0504820333 15.195092 0.0504820333 12.6709904 0.0504820333 10.1468887 0.0504820333 7.62278703 0.0504820333 5.09868536 0.0504820333 5.09868536 2.5745837 2.5745837 2.5745837 2.5745837 5.09868536 0.0504820333 5.09868536 0.0504820333 7.62278703 0.0504820333 10.1468887 0.0504820333 12.6709904 0.0504820333 15.195092 0.0504820333 17.7191937 0.0504820333 20.2432954 0.0504820333 22.767397 2.5745837 22.767397 2.5745837 25.2914987 5.09868536 25.2914987 5.09868536 27.8156004 7.62278703 27.8156004 10.1468887 27.8156004 12.6709904 27.8156004 15.195092 27.8156004 17.7191937 27.8156004 17.7191937 30.339702 20.2432954 30.339702 20.2432954 32.8638037 22.767397 32.8638037 22.767397 35.3879053 25.2914987 35.3879053 25.2914987 32.8638037 25.2914987 30.339702 25.2914987 27.8156004 27.8156004 27.8156004 30.339702 27.8156004 32.8638037 27.8156004"/>
                            <g id="Group" transform="translate(12.620508, 7.572305)" fill="#5E4F5F" fill-rule="nonzero">
                                <polygon id="Shape" points="63.1530237 0.0504820333 63.1530237 2.5745837 63.1530237 5.09868536 65.6771253 5.09868536 65.6771253 2.5745837 65.6771253 0.0504820333"/>
                                <path d="M2.5745837,2.5745837 L0.0504820333,2.5745837 L0.0504820333,5.09868536 L0.0504820333,7.62278703 L0.0504820333,10.1468887 L2.5745837,10.1468887 L5.09868536,10.1468887 L7.62278703,10.1468887 L7.62278703,7.62278703 L7.62278703,5.09868536 L7.62278703,2.5745837 L5.09868536,2.5745837 L2.5745837,2.5745837 Z M5.09868536,7.62278703 L2.5745837,7.62278703 L2.5745837,5.09868536 L5.09868536,5.09868536 L5.09868536,7.62278703 Z" id="Shape"/>
                                <path d="M12.6709904,2.5745837 L10.1468887,2.5745837 L10.1468887,5.09868536 L10.1468887,7.62278703 L10.1468887,10.1468887 L12.6709904,10.1468887 L15.195092,10.1468887 L17.7191937,10.1468887 L17.7191937,7.62278703 L17.7191937,5.09868536 L17.7191937,2.5745837 L15.195092,2.5745837 L12.6709904,2.5745837 Z M15.195092,7.62278703 L12.6709904,7.62278703 L12.6709904,5.09868536 L15.195092,5.09868536 L15.195092,7.62278703 Z" id="Shape"/>
                                <polygon id="Shape" points="22.767397 2.5745837 20.2432954 2.5745837 20.2432954 5.09868536 22.767397 5.09868536 22.767397 7.62278703 22.767397 10.1468887 25.2914987 10.1468887 25.2914987 7.62278703 25.2914987 5.09868536 27.8156004 5.09868536 27.8156004 2.5745837 25.2914987 2.5745837"/>
                                <path d="M32.8638037,2.5745837 L30.339702,2.5745837 L30.339702,5.09868536 L30.339702,7.62278703 L30.339702,10.1468887 L32.8638037,10.1468887 L35.3879053,10.1468887 L37.912007,10.1468887 L37.912007,7.62278703 L37.912007,5.09868536 L37.912007,2.5745837 L35.3879053,2.5745837 L32.8638037,2.5745837 Z M35.3879053,7.62278703 L32.8638037,7.62278703 L32.8638037,5.09868536 L35.3879053,5.09868536 L35.3879053,7.62278703 Z" id="Shape"/>
                                <polygon id="Shape" points="40.4361087 5.09868536 40.4361087 7.62278703 40.4361087 10.1468887 42.9602103 10.1468887 42.9602103 7.62278703 42.9602103 5.09868536 42.9602103 2.5745837 40.4361087 2.5745837"/>
                                <polygon id="Shape" points="45.484312 2.5745837 45.484312 5.09868536 45.484312 7.62278703 45.484312 10.1468887 48.0084137 10.1468887 50.5325153 10.1468887 50.5325153 7.62278703 48.0084137 7.62278703 48.0084137 5.09868536 50.5325153 5.09868536 50.5325153 2.5745837 48.0084137 2.5745837"/>
                                <polygon id="Shape" points="55.5807187 2.5745837 53.056617 2.5745837 53.056617 5.09868536 55.5807187 5.09868536 55.5807187 7.62278703 55.5807187 10.1468887 58.1048203 10.1468887 58.1048203 7.62278703 58.1048203 5.09868536 60.628922 5.09868536 60.628922 2.5745837 58.1048203 2.5745837"/>
                            </g>
                            <g id="Group" transform="translate(17.668712, 7.572305)" fill="#DE7187" fill-rule="nonzero">
                                <rect id="Rectangle-path" x="0.0504820333" y="0.0504820333" width="2.52410167" height="2.52410167"/>
                                <rect id="Rectangle-path" x="17.7191937" y="0.0504820333" width="2.52410167" height="2.52410167"/>
                                <rect id="Rectangle-path" x="35.3879053" y="0.0504820333" width="2.52410167" height="2.52410167"/>
                                <rect id="Rectangle-path" x="50.5325153" y="0.0504820333" width="2.52410167" height="2.52410167"/>
                                <rect id="Rectangle-path" x="58.1048203" y="7.62278703" width="2.52410167" height="2.52410167"/>
                                <polygon id="Rectangle-path" points="25.2914987 10.1468887 27.8156004 10.1468887 27.8156004 12.6709904 25.2914987 12.6709904"/>
                            </g>
                        </g>
                        <g id="picko" transform="translate(27.765118, 22.716915)">
                            <g id="Group" fill="#5E4F5F" fill-rule="nonzero">
                                <polygon id="Shape" points="25.2914987 2.5745837 27.8156004 2.5745837 30.339702 2.5745837 32.8638037 2.5745837 35.3879053 2.5745837 37.912007 2.5745837 37.912007 0.0504820333 35.3879053 0.0504820333 32.8638037 0.0504820333 30.339702 0.0504820333 27.8156004 0.0504820333 25.2914987 0.0504820333 22.767397 0.0504820333 20.2432954 0.0504820333 20.2432954 2.5745837 22.767397 2.5745837"/>
                                <polygon id="Shape" points="20.2432954 5.09868536 20.2432954 2.5745837 17.7191937 2.5745837 15.195092 2.5745837 15.195092 5.09868536 17.7191937 5.09868536"/>
                                <polygon id="Shape" points="40.4361087 5.09868536 42.9602103 5.09868536 42.9602103 2.5745837 40.4361087 2.5745837 37.912007 2.5745837 37.912007 5.09868536"/>
                                <rect id="Rectangle-path" x="12.6709904" y="5.09868536" width="2.52410167" height="2.52410167"/>
                                <rect id="Rectangle-path" x="42.9602103" y="5.09868536" width="2.52410167" height="2.52410167"/>
                                <rect id="Rectangle-path" x="10.1468887" y="7.62278703" width="2.52410167" height="2.52410167"/>
                                <rect id="Rectangle-path" x="45.484312" y="7.62278703" width="2.52410167" height="2.52410167"/>
                                <polygon id="Shape" points="10.1468887 12.6709904 10.1468887 10.1468887 7.62278703 10.1468887 7.62278703 12.6709904 7.62278703 15.195092 10.1468887 15.195092"/>
                                <polygon id="Shape" points="48.0084137 15.195092 50.5325153 15.195092 50.5325153 12.6709904 50.5325153 10.1468887 48.0084137 10.1468887 48.0084137 12.6709904"/>
                                <polygon id="Shape" points="7.62278703 17.7191937 7.62278703 15.195092 5.09868536 15.195092 5.09868536 17.7191937 5.09868536 20.2432954 7.62278703 20.2432954"/>
                                <polygon id="Shape" points="50.5325153 20.2432954 53.056617 20.2432954 53.056617 17.7191937 53.056617 15.195092 50.5325153 15.195092 50.5325153 17.7191937"/>
                                <polygon id="Shape" points="53.056617 25.2914987 53.056617 27.8156004 53.056617 30.339702 53.056617 32.8638037 53.056617 35.3879053 55.5807187 35.3879053 55.5807187 32.8638037 55.5807187 30.339702 55.5807187 27.8156004 55.5807187 25.2914987 55.5807187 22.767397 55.5807187 20.2432954 53.056617 20.2432954 53.056617 22.767397"/>
                                <polygon id="Shape" points="17.7191937 25.2914987 15.195092 25.2914987 12.6709904 25.2914987 12.6709904 27.8156004 12.6709904 30.339702 15.195092 30.339702 15.195092 32.8638037 17.7191937 32.8638037 20.2432954 32.8638037 20.2432954 30.339702 20.2432954 27.8156004 17.7191937 27.8156004"/>
                                <polygon id="Shape" points="35.3879053 25.2914987 32.8638037 25.2914987 30.339702 25.2914987 30.339702 27.8156004 30.339702 30.339702 32.8638037 30.339702 32.8638037 32.8638037 35.3879053 32.8638037 37.912007 32.8638037 37.912007 30.339702 37.912007 27.8156004 35.3879053 27.8156004"/>
                                <polygon id="Shape" points="5.09868536 30.339702 5.09868536 27.8156004 5.09868536 25.2914987 5.09868536 22.767397 5.09868536 20.2432954 2.5745837 20.2432954 2.5745837 22.767397 2.5745837 25.2914987 2.5745837 27.8156004 2.5745837 30.339702 2.5745837 32.8638037 2.5745837 35.3879053 5.09868536 35.3879053 5.09868536 32.8638037"/>
                                <rect id="Rectangle-path" x="50.5325153" y="35.3879053" width="2.52410167" height="2.52410167"/>
                                <polygon id="Shape" points="7.62278703 37.912007 7.62278703 35.3879053 5.09868536 35.3879053 5.09868536 37.912007 5.09868536 40.4361087 7.62278703 40.4361087"/>
                                <polygon id="Shape" points="5.09868536 40.4361087 2.5745837 40.4361087 2.5745837 42.9602103 2.5745837 45.484312 5.09868536 45.484312 5.09868536 42.9602103"/>
                                <rect id="Rectangle-path" x="40.4361087" y="40.4361087" width="2.52410167" height="2.52410167"/>
                                <polygon id="Shape" points="53.056617 42.9602103 55.5807187 42.9602103 55.5807187 40.4361087 55.5807187 37.912007 53.056617 37.912007 53.056617 40.4361087"/>
                                <polygon id="Shape" points="35.3879053 42.9602103 32.8638037 42.9602103 30.339702 42.9602103 30.339702 45.484312 27.8156004 45.484312 27.8156004 42.9602103 25.2914987 42.9602103 22.767397 42.9602103 20.2432954 42.9602103 17.7191937 42.9602103 15.195092 42.9602103 12.6709904 42.9602103 12.6709904 40.4361087 10.1468887 40.4361087 10.1468887 42.9602103 10.1468887 45.484312 7.62278703 45.484312 5.09868536 45.484312 5.09868536 48.0084137 7.62278703 48.0084137 7.62278703 50.5325153 5.09868536 50.5325153 5.09868536 53.056617 2.5745837 53.056617 2.5745837 55.5807187 2.5745837 58.1048203 0.0504820333 58.1048203 0.0504820333 60.628922 0.0504820333 63.1530237 0.0504820333 65.6771253 2.5745837 65.6771253 2.5745837 68.201227 5.09868536 68.201227 5.09868536 70.7253287 7.62278703 70.7253287 10.1468887 70.7253287 10.1468887 68.201227 7.62278703 68.201227 7.62278703 65.6771253 7.62278703 63.1530237 7.62278703 60.628922 7.62278703 58.1048203 7.62278703 55.5807187 10.1468887 55.5807187 10.1468887 53.056617 10.1468887 50.5325153 12.6709904 50.5325153 12.6709904 48.0084137 15.195092 48.0084137 15.195092 45.484312 17.7191937 45.484312 20.2432954 45.484312 22.767397 45.484312 22.767397 48.0084137 25.2914987 48.0084137 25.2914987 50.5325153 27.8156004 50.5325153 30.339702 50.5325153 30.339702 48.0084137 32.8638037 48.0084137 32.8638037 45.484312 35.3879053 45.484312 35.3879053 48.0084137 37.912007 48.0084137 37.912007 45.484312 40.4361087 45.484312 40.4361087 42.9602103 37.912007 42.9602103"/>
                                <rect id="Rectangle-path" x="20.2432954" y="48.0084137" width="2.52410167" height="2.52410167"/>
                                <rect id="Rectangle-path" x="37.912007" y="48.0084137" width="2.52410167" height="2.52410167"/>
                                <polygon id="Shape" points="20.2432954 53.056617 20.2432954 50.5325153 17.7191937 50.5325153 15.195092 50.5325153 15.195092 53.056617 17.7191937 53.056617"/>
                                <rect id="Rectangle-path" x="40.4361087" y="50.5325153" width="2.52410167" height="2.52410167"/>
                                <polygon id="Shape" points="15.195092 53.056617 12.6709904 53.056617 12.6709904 55.5807187 12.6709904 58.1048203 15.195092 58.1048203 15.195092 55.5807187"/>
                                <rect id="Rectangle-path" x="35.3879053" y="53.056617" width="2.52410167" height="2.52410167"/>
                                <rect id="Rectangle-path" x="42.9602103" y="53.056617" width="2.52410167" height="2.52410167"/>
                                <polygon id="Shape" points="40.4361087 55.5807187 37.912007 55.5807187 37.912007 58.1048203 37.912007 60.628922 40.4361087 60.628922 40.4361087 58.1048203"/>
                                <polygon id="Shape" points="55.5807187 55.5807187 55.5807187 53.056617 55.5807187 50.5325153 53.056617 50.5325153 53.056617 48.0084137 50.5325153 48.0084137 50.5325153 45.484312 53.056617 45.484312 53.056617 42.9602103 50.5325153 42.9602103 48.0084137 42.9602103 48.0084137 40.4361087 45.484312 40.4361087 45.484312 42.9602103 42.9602103 42.9602103 42.9602103 45.484312 45.484312 45.484312 45.484312 48.0084137 48.0084137 48.0084137 48.0084137 50.5325153 48.0084137 53.056617 50.5325153 53.056617 50.5325153 55.5807187 50.5325153 58.1048203 50.5325153 60.628922 50.5325153 63.1530237 53.056617 63.1530237 53.056617 60.628922 53.056617 58.1048203 55.5807187 58.1048203 55.5807187 60.628922 55.5807187 63.1530237 55.5807187 65.6771253 58.1048203 65.6771253 58.1048203 63.1530237 58.1048203 60.628922 58.1048203 58.1048203 58.1048203 55.5807187"/>
                                <rect id="Rectangle-path" x="15.195092" y="58.1048203" width="2.52410167" height="2.52410167"/>
                                <polygon id="Shape" points="45.484312 60.628922 48.0084137 60.628922 48.0084137 58.1048203 48.0084137 55.5807187 45.484312 55.5807187 45.484312 58.1048203"/>
                                <polygon id="Rectangle-path" points="35.3879053 60.628922 37.912007 60.628922 37.912007 63.1530237 35.3879053 63.1530237"/>
                                <polygon id="Shape" points="40.4361087 60.628922 40.4361087 63.1530237 42.9602103 63.1530237 45.484312 63.1530237 45.484312 60.628922 42.9602103 60.628922"/>
                                <polygon id="Shape" points="30.339702 63.1530237 27.8156004 63.1530237 25.2914987 63.1530237 25.2914987 60.628922 22.767397 60.628922 20.2432954 60.628922 17.7191937 60.628922 17.7191937 63.1530237 15.195092 63.1530237 15.195092 65.6771253 17.7191937 65.6771253 17.7191937 68.201227 15.195092 68.201227 15.195092 70.7253287 17.7191937 70.7253287 20.2432954 70.7253287 20.2432954 68.201227 22.767397 68.201227 22.767397 65.6771253 25.2914987 65.6771253 27.8156004 65.6771253 27.8156004 68.201227 30.339702 68.201227 30.339702 70.7253287 27.8156004 70.7253287 27.8156004 73.2494303 30.339702 73.2494303 32.8638037 73.2494303 32.8638037 70.7253287 32.8638037 68.201227 32.8638037 65.6771253 35.3879053 65.6771253 35.3879053 63.1530237 32.8638037 63.1530237"/>
                                <rect id="Rectangle-path" x="48.0084137" y="63.1530237" width="2.52410167" height="2.52410167"/>
                                <rect id="Rectangle-path" x="12.6709904" y="65.6771253" width="2.52410167" height="2.52410167"/>
                                <rect id="Rectangle-path" x="53.056617" y="65.6771253" width="2.52410167" height="2.52410167"/>
                                <rect id="Rectangle-path" x="25.2914987" y="68.201227" width="2.52410167" height="2.52410167"/>
                                <polygon id="Shape" points="48.0084137 68.201227 48.0084137 65.6771253 45.484312 65.6771253 45.484312 68.201227 42.9602103 68.201227 40.4361087 68.201227 40.4361087 70.7253287 42.9602103 70.7253287 45.484312 70.7253287 48.0084137 70.7253287 50.5325153 70.7253287 53.056617 70.7253287 53.056617 68.201227 50.5325153 68.201227"/>
                            </g>
                            <g id="Group" transform="translate(5.048203, 2.524102)" fill="#EDA3AD" fill-rule="nonzero">
                                <polygon id="Shape" points="7.62278703 12.6709904 5.09868536 12.6709904 5.09868536 15.195092 2.5745837 15.195092 2.5745837 17.7191937 0.0504820333 17.7191937 0.0504820333 20.2432954 0.0504820333 22.767397 0.0504820333 25.2914987 0.0504820333 27.8156004 0.0504820333 30.339702 0.0504820333 32.8638037 2.5745837 32.8638037 2.5745837 30.339702 2.5745837 27.8156004 5.09868536 27.8156004 5.09868536 30.339702 7.62278703 30.339702 7.62278703 27.8156004 7.62278703 25.2914987 7.62278703 22.767397 10.1468887 22.767397 10.1468887 20.2432954 12.6709904 20.2432954 12.6709904 17.7191937 12.6709904 15.195092 12.6709904 12.6709904 10.1468887 12.6709904"/>
                                <path d="M40.4361087,20.2432954 L42.9602103,20.2432954 L42.9602103,17.7191937 L42.9602103,15.195092 L42.9602103,12.6709904 L42.9602103,10.1468887 L40.4361087,10.1468887 L40.4361087,7.62278703 L40.4361087,5.09868536 L37.912007,5.09868536 L37.912007,2.5745837 L35.3879053,2.5745837 L32.8638037,2.5745837 L32.8638037,0.0504820333 L30.339702,0.0504820333 L27.8156004,0.0504820333 L25.2914987,0.0504820333 L22.767397,0.0504820333 L20.2432954,0.0504820333 L17.7191937,0.0504820333 L15.195092,0.0504820333 L15.195092,2.5745837 L12.6709904,2.5745837 L10.1468887,2.5745837 L10.1468887,5.09868536 L7.62278703,5.09868536 L7.62278703,7.62278703 L5.09868536,7.62278703 L5.09868536,10.1468887 L7.62278703,10.1468887 L10.1468887,10.1468887 L12.6709904,10.1468887 L12.6709904,7.62278703 L15.195092,7.62278703 L17.7191937,7.62278703 L17.7191937,10.1468887 L15.195092,10.1468887 L12.6709904,10.1468887 L12.6709904,12.6709904 L15.195092,12.6709904 L15.195092,15.195092 L15.195092,17.7191937 L15.195092,20.2432954 L15.195092,22.767397 L15.195092,25.2914987 L17.7191937,25.2914987 L17.7191937,27.8156004 L20.2432954,27.8156004 L22.767397,27.8156004 L22.767397,25.2914987 L22.767397,22.767397 L22.767397,20.2432954 L22.767397,17.7191937 L25.2914987,17.7191937 L25.2914987,20.2432954 L25.2914987,22.767397 L27.8156004,22.767397 L30.339702,22.767397 L30.339702,25.2914987 L32.8638037,25.2914987 L32.8638037,27.8156004 L32.8638037,30.339702 L32.8638037,32.8638037 L32.8638037,35.3879053 L32.8638037,37.912007 L32.8638037,40.4361087 L35.3879053,40.4361087 L35.3879053,37.912007 L37.912007,37.912007 L37.912007,35.3879053 L37.912007,32.8638037 L37.912007,30.339702 L37.912007,27.8156004 L37.912007,25.2914987 L37.912007,22.767397 L37.912007,20.2432954 L37.912007,17.7191937 L37.912007,15.195092 L35.3879053,15.195092 L35.3879053,12.6709904 L37.912007,12.6709904 L37.912007,15.195092 L40.4361087,15.195092 L40.4361087,17.7191937 L40.4361087,20.2432954 Z M20.2432954,7.62278703 L22.767397,7.62278703 L22.767397,10.1468887 L20.2432954,10.1468887 L20.2432954,7.62278703 Z" id="Shape"/>
                                <polygon id="Shape" points="20.2432954 35.3879053 17.7191937 35.3879053 17.7191937 37.912007 20.2432954 37.912007 20.2432954 40.4361087 22.767397 40.4361087 25.2914987 40.4361087 25.2914987 37.912007 25.2914987 35.3879053 22.767397 35.3879053"/>
                                <rect id="Rectangle-path" x="15.195092" y="48.0084137" width="2.52410167" height="2.52410167"/>
                                <polygon id="Shape" points="35.3879053 48.0084137 32.8638037 48.0084137 32.8638037 45.484312 30.339702 45.484312 30.339702 42.9602103 27.8156004 42.9602103 27.8156004 45.484312 27.8156004 48.0084137 30.339702 48.0084137 30.339702 50.5325153 32.8638037 50.5325153 35.3879053 50.5325153"/>
                                <polygon id="Shape" points="10.1468887 50.5325153 10.1468887 53.056617 10.1468887 55.5807187 12.6709904 55.5807187 12.6709904 53.056617 15.195092 53.056617 15.195092 50.5325153 12.6709904 50.5325153"/>
                                <rect id="Rectangle-path" x="35.3879053" y="55.5807187" width="2.52410167" height="2.52410167"/>
                                <rect id="Rectangle-path" x="48.0084137" y="60.628922" width="2.52410167" height="2.52410167"/>
                                <polygon id="Shape" points="42.9602103 63.1530237 42.9602103 65.6771253 45.484312 65.6771253 48.0084137 65.6771253 48.0084137 63.1530237 45.484312 63.1530237"/>
                            </g>
                            <g id="Group" transform="translate(7.572305, 10.096407)" fill="#FDE9E0" fill-rule="nonzero">
                                <polygon id="Shape" points="15.195092 2.5745837 15.195092 0.0504820333 12.6709904 0.0504820333 10.1468887 0.0504820333 10.1468887 2.5745837 12.6709904 2.5745837"/>
                                <rect id="Rectangle-path" x="17.7191937" y="0.0504820333" width="2.52410167" height="2.52410167"/>
                                <polygon id="Shape" points="7.62278703 5.09868536 10.1468887 5.09868536 10.1468887 2.5745837 7.62278703 2.5745837 5.09868536 2.5745837 2.5745837 2.5745837 2.5745837 5.09868536 5.09868536 5.09868536"/>
                                <rect id="Rectangle-path" x="0.0504820333" y="5.09868536" width="2.52410167" height="2.52410167"/>
                                <polygon id="Shape" points="12.6709904 12.6709904 12.6709904 10.1468887 12.6709904 7.62278703 10.1468887 7.62278703 10.1468887 10.1468887 10.1468887 12.6709904 7.62278703 12.6709904 7.62278703 15.195092 10.1468887 15.195092 10.1468887 17.7191937 12.6709904 17.7191937 12.6709904 15.195092"/>
                                <polygon id="Shape" points="37.912007 17.7191937 35.3879053 17.7191937 35.3879053 20.2432954 35.3879053 22.767397 35.3879053 25.2914987 37.912007 25.2914987 37.912007 22.767397 40.4361087 22.767397 40.4361087 20.2432954 40.4361087 17.7191937"/>
                                <polygon id="Shape" points="30.339702 27.8156004 27.8156004 27.8156004 25.2914987 27.8156004 25.2914987 25.2914987 22.767397 25.2914987 22.767397 22.767397 22.767397 20.2432954 22.767397 17.7191937 22.767397 15.195092 22.767397 12.6709904 20.2432954 12.6709904 20.2432954 15.195092 20.2432954 17.7191937 20.2432954 20.2432954 17.7191937 20.2432954 15.195092 20.2432954 15.195092 17.7191937 12.6709904 17.7191937 12.6709904 20.2432954 12.6709904 22.767397 12.6709904 25.2914987 12.6709904 27.8156004 10.1468887 27.8156004 7.62278703 27.8156004 7.62278703 25.2914987 5.09868536 25.2914987 5.09868536 27.8156004 5.09868536 30.339702 7.62278703 30.339702 7.62278703 32.8638037 10.1468887 32.8638037 12.6709904 32.8638037 15.195092 32.8638037 17.7191937 32.8638037 17.7191937 30.339702 15.195092 30.339702 15.195092 27.8156004 17.7191937 27.8156004 20.2432954 27.8156004 22.767397 27.8156004 22.767397 30.339702 22.767397 32.8638037 25.2914987 32.8638037 27.8156004 32.8638037 27.8156004 30.339702 30.339702 30.339702"/>
                                <polygon id="Shape" points="35.3879053 42.9602103 32.8638037 42.9602103 30.339702 42.9602103 30.339702 45.484312 32.8638037 45.484312 32.8638037 48.0084137 35.3879053 48.0084137 35.3879053 50.5325153 37.912007 50.5325153 37.912007 48.0084137 37.912007 45.484312 35.3879053 45.484312"/>
                            </g>
                            <g id="Group" transform="translate(7.572305, 10.096407)" fill="#DE7187" fill-rule="nonzero">
                                <rect id="Rectangle-path" x="37.912007" y="0.0504820333" width="2.52410167" height="2.52410167"/>
                                <rect id="Rectangle-path" x="10.1468887" y="5.09868536" width="2.52410167" height="2.52410167"/>
                                <rect id="Rectangle-path" x="32.8638037" y="5.09868536" width="2.52410167" height="2.52410167"/>
                                <rect id="Rectangle-path" x="20.2432954" y="10.1468887" width="2.52410167" height="2.52410167"/>
                                <polygon id="Shape" points="2.5745837 20.2432954 0.0504820333 20.2432954 0.0504820333 22.767397 0.0504820333 25.2914987 0.0504820333 27.8156004 0.0504820333 30.339702 0.0504820333 32.8638037 2.5745837 32.8638037 2.5745837 30.339702 5.09868536 30.339702 5.09868536 27.8156004 5.09868536 25.2914987 5.09868536 22.767397 2.5745837 22.767397"/>
                                <polygon id="Shape" points="7.62278703 22.767397 7.62278703 25.2914987 7.62278703 27.8156004 10.1468887 27.8156004 10.1468887 25.2914987 12.6709904 25.2914987 12.6709904 22.767397 10.1468887 22.767397"/>
                                <polygon id="Shape" points="25.2914987 22.767397 25.2914987 25.2914987 25.2914987 27.8156004 27.8156004 27.8156004 27.8156004 25.2914987 30.339702 25.2914987 30.339702 22.767397 27.8156004 22.767397"/>
                                <polygon id="Shape" points="42.9602103 25.2914987 45.484312 25.2914987 45.484312 22.767397 45.484312 20.2432954 45.484312 17.7191937 45.484312 15.195092 45.484312 12.6709904 45.484312 10.1468887 42.9602103 10.1468887 42.9602103 7.62278703 42.9602103 5.09868536 40.4361087 5.09868536 40.4361087 7.62278703 40.4361087 10.1468887 40.4361087 12.6709904 37.912007 12.6709904 37.912007 10.1468887 37.912007 7.62278703 35.3879053 7.62278703 35.3879053 10.1468887 35.3879053 12.6709904 35.3879053 15.195092 35.3879053 17.7191937 37.912007 17.7191937 40.4361087 17.7191937 40.4361087 20.2432954 40.4361087 22.767397 37.912007 22.767397 37.912007 25.2914987 35.3879053 25.2914987 35.3879053 27.8156004 35.3879053 30.339702 37.912007 30.339702 40.4361087 30.339702 40.4361087 27.8156004 42.9602103 27.8156004"/>
                                <rect id="Rectangle-path" x="27.8156004" y="30.339702" width="2.52410167" height="2.52410167"/>
                                <polygon id="Shape" points="45.484312 48.0084137 45.484312 50.5325153 45.484312 53.056617 48.0084137 53.056617 48.0084137 50.5325153 48.0084137 48.0084137"/>
                                <rect id="Rectangle-path" x="42.9602103" y="53.056617" width="2.52410167" height="2.52410167"/>
                            </g>
                            <g id="Group" transform="translate(12.620508, 30.289220)" fill="#FFFFFF" fill-rule="nonzero">
                                <polygon id="Shape" points="0.0504820333 2.5745837 0.0504820333 5.09868536 2.5745837 5.09868536 2.5745837 2.5745837 2.5745837 0.0504820333 0.0504820333 0.0504820333"/>
                                <polygon id="Shape" points="20.2432954 2.5745837 20.2432954 0.0504820333 17.7191937 0.0504820333 17.7191937 2.5745837 17.7191937 5.09868536 20.2432954 5.09868536"/>
                                <rect id="Rectangle-path" x="5.09868536" y="5.09868536" width="2.52410167" height="2.52410167"/>
                                <rect id="Rectangle-path" x="22.767397" y="5.09868536" width="2.52410167" height="2.52410167"/>
                                <polygon id="Shape" points="22.767397 22.767397 20.2432954 22.767397 20.2432954 20.2432954 17.7191937 20.2432954 15.195092 20.2432954 15.195092 22.767397 15.195092 25.2914987 12.6709904 25.2914987 12.6709904 27.8156004 12.6709904 30.339702 12.6709904 32.8638037 15.195092 32.8638037 17.7191937 32.8638037 20.2432954 32.8638037 22.767397 32.8638037 22.767397 30.339702 25.2914987 30.339702 25.2914987 27.8156004 25.2914987 25.2914987 22.767397 25.2914987"/>
                                <rect id="Rectangle-path" x="7.62278703" y="25.2914987" width="2.52410167" height="2.52410167"/>
                                <rect id="Rectangle-path" x="5.09868536" y="27.8156004" width="2.52410167" height="2.52410167"/>
                            </g>
                            <g id="Group" transform="translate(22.716915, 42.909728)" fill="#865C90" fill-rule="nonzero">
                                <rect id="Rectangle-path" x="5.09868536" y="0.0504820333" width="2.52410167" height="2.52410167"/>
                                <rect id="Rectangle-path" x="2.5745837" y="7.62278703" width="2.52410167" height="2.52410167"/>
                                <rect id="Rectangle-path" x="0.0504820333" y="10.1468887" width="2.52410167" height="2.52410167"/>
                            </g>
                            <g id="Group" transform="translate(5.048203, 37.861525)" fill="#6D90B4" fill-rule="nonzero">
                                <polygon id="Shape" points="45.484312 0.0504820333 42.9602103 0.0504820333 42.9602103 2.5745837 42.9602103 5.09868536 45.484312 5.09868536 48.0084137 5.09868536 48.0084137 2.5745837 48.0084137 0.0504820333"/>
                                <polygon id="Shape" points="2.5745837 2.5745837 0.0504820333 2.5745837 0.0504820333 5.09868536 0.0504820333 7.62278703 2.5745837 7.62278703 5.09868536 7.62278703 5.09868536 5.09868536 2.5745837 5.09868536"/>
                            </g>
                            <g id="Group" transform="translate(12.620508, 40.385627)" fill="#587799" fill-rule="nonzero">
                                <rect id="Rectangle-path" x="0.0504820333" y="0.0504820333" width="2.52410167" height="2.52410167"/>
                                <rect id="Rectangle-path" x="30.339702" y="0.0504820333" width="2.52410167" height="2.52410167"/>
                            </g>
                            <g id="Group" transform="translate(17.668712, 47.957932)" fill="#CDE5EA" fill-rule="nonzero">
                                <polygon id="Shape" points="5.09868536 2.5745837 5.09868536 5.09868536 7.62278703 5.09868536 7.62278703 2.5745837 7.62278703 0.0504820333 5.09868536 0.0504820333"/>
                                <rect id="Rectangle-path" x="12.6709904" y="0.0504820333" width="2.52410167" height="2.52410167"/>
                                <rect id="Rectangle-path" x="15.195092" y="2.5745837" width="2.52410167" height="2.52410167"/>
                                <rect id="Rectangle-path" x="2.5745837" y="5.09868536" width="2.52410167" height="2.52410167"/>
                                <rect id="Rectangle-path" x="0.0504820333" y="7.62278703" width="2.52410167" height="2.52410167"/>
                            </g>
                            <g id="Group" transform="translate(15.144610, 53.006135)" fill="#D66487" fill-rule="nonzero">
                                <rect id="Rectangle-path" x="10.1468887" y="0.0504820333" width="2.52410167" height="2.52410167"/>
                                <polygon id="Shape" points="7.62278703 5.09868536 5.09868536 5.09868536 5.09868536 7.62278703 7.62278703 7.62278703 10.1468887 7.62278703 10.1468887 5.09868536 10.1468887 2.5745837 7.62278703 2.5745837"/>
                                <rect id="Rectangle-path" x="0.0504820333" y="12.6709904" width="2.52410167" height="2.52410167"/>
                                <rect id="Rectangle-path" x="12.6709904" y="15.195092" width="2.52410167" height="2.52410167"/>
                            </g>
                        </g>
                    </g>
                </g>
            </g>
        </g>
    </g>
</svg>